<?xml version="1.0" encoding="utf-8"?>
<svg viewBox="0 0 500 500" xmlns="http://www.w3.org/2000/svg" xmlns:bx="https://boxy-svg.com">
  <rect x="58.409" y="27.481" width="357.889" height="424.214" style="stroke: rgb(0, 0, 0); fill-rule: nonzero; stroke-linecap: square; stroke-miterlimit: 38; stroke-width: 11px; paint-order: fill; fill: rgb(255, 240, 213);" rx="25.562" ry="25.562"/>
  <path d="M 133.279 341.956 L 142.978 369.858 L 172.511 370.46 L 148.972 388.306 L 157.526 416.58 L 133.279 399.707 L 109.032 416.58 L 117.586 388.306 L 94.047 370.46 L 123.58 369.858 Z" style="stroke: rgb(0, 0, 0); fill: rgb(255, 215, 0); stroke-linejoin: round; stroke-width: 7px;" bx:shape="star 133.279 383.207 41.251 41.251 0.4 5 1@bd9297ab"/>
  <path d="M 236.137 342.566 L 245.836 370.468 L 275.369 371.07 L 251.83 388.916 L 260.384 417.19 L 236.137 400.317 L 211.89 417.19 L 220.444 388.916 L 196.905 371.07 L 226.438 370.468 Z" style="stroke: rgb(0, 0, 0); stroke-linejoin: round; stroke-width: 7px; fill: rgb(255, 255, 255);" bx:shape="star 236.137 383.817 41.251 41.251 0.4 5 1@15f42adc"/>
  <path d="M 338.995 341.957 L 348.694 369.859 L 378.227 370.461 L 354.688 388.307 L 363.242 416.581 L 338.995 399.708 L 314.748 416.581 L 323.302 388.307 L 299.763 370.461 L 329.296 369.859 Z" style="stroke: rgb(0, 0, 0); stroke-linejoin: round; stroke-width: 7px; fill: rgb(255, 255, 255);" bx:shape="star 338.995 383.208 41.251 41.251 0.4 5 1@0a893e13"/>
  <path style="stroke: rgb(0, 0, 0); stroke-linejoin: round; paint-order: stroke; fill: rgb(255, 255, 255); stroke-width: 20px;" d="M 174.216 179.972 L 174.216 303.535 L 306.974 303.535 L 307.015 182.032 C 318.351 179.625 347.641 156.371 333.222 123.148 C 318.803 89.925 282.403 99.401 285.221 97.292 C 285.221 97.292 270.558 68.897 241.822 71.771 C 213.086 74.645 205.825 94.915 205.825 94.915 C 205.825 94.915 172.305 83.902 155.25 114.455 C 138.195 145.008 159.001 166.419 159.001 166.419 C 159.001 166.419 167.894 176.881 174.216 179.972 Z"/>
  <path style="stroke: rgb(0, 0, 0); stroke-linecap: round; fill: rgb(255, 255, 255); stroke-width: 10px;" d="M 280.797 228.454 L 280.797 248.561"/>
  <path style="stroke: rgb(0, 0, 0); stroke-linecap: round; fill: rgb(255, 255, 255); stroke-width: 10px;" d="M 244.537 238.769 L 244.537 257.818"/>
  <path style="stroke: rgb(0, 0, 0); stroke-linecap: round; fill: rgb(255, 255, 255); stroke-width: 10px;" d="M 208.131 229.118 L 208.131 249.225"/>
</svg>